<svg width="61" height="42" viewBox="0 0 61 42" fill="none" xmlns="http://www.w3.org/2000/svg">
<path d="M18.2821 6.05936C19.0468 6.05936 19.9251 6.1317 20.9171 6.27637C21.9091 6.40037 22.8184 6.54503 23.6451 6.71037L23.5831 9.03537C21.2478 8.5807 19.4808 8.35336 18.2821 8.35336C16.8561 8.35336 15.8331 8.6427 15.2131 9.22137C14.6138 9.77937 14.3141 10.7197 14.3141 12.0424V21.0324C14.3141 22.355 14.6138 23.316 15.2131 23.9154C15.8331 24.494 16.8561 24.7834 18.2821 24.7834C19.2121 24.7834 20.4211 24.6387 21.9091 24.3494V17.4984H18.0341V15.0184H24.5441V25.9614C22.0641 26.726 19.9768 27.1084 18.2821 27.1084C15.9054 27.1084 14.2108 26.602 13.1981 25.5894C12.1854 24.5767 11.6791 22.9957 11.6791 20.8464V12.3214C11.6791 10.1307 12.1958 8.53937 13.2291 7.54737C14.2624 6.55536 15.9468 6.05936 18.2821 6.05936ZM35.6324 6.05936C37.9471 6.05936 39.6521 6.63803 40.7474 7.79537C41.8427 8.9527 42.3904 10.5957 42.3904 12.7244V20.4434C42.3904 22.572 41.8427 24.215 40.7474 25.3724C39.6521 26.5297 37.9471 27.1084 35.6324 27.1084C33.3177 27.1084 31.6127 26.5297 30.5174 25.3724C29.4221 24.215 28.8744 22.572 28.8744 20.4434V12.7244C28.8744 10.5957 29.4221 8.9527 30.5174 7.79537C31.6127 6.63803 33.3177 6.05936 35.6324 6.05936ZM35.6324 8.38437C34.2684 8.38437 33.2351 8.72537 32.5324 9.40737C31.8504 10.0894 31.5094 11.0917 31.5094 12.4144V20.7224C31.5094 22.045 31.8504 23.0577 32.5324 23.7604C33.2351 24.4424 34.2684 24.7834 35.6324 24.7834C36.9964 24.7834 38.0194 24.4424 38.7014 23.7604C39.4041 23.0577 39.7554 22.045 39.7554 20.7224V12.4454C39.7554 11.1227 39.4041 10.1204 38.7014 9.43837C38.0194 8.7357 36.9964 8.38437 35.6324 8.38437Z" fill="#FF9000"/>
<path d="M5.10337 29.161C6.29336 29.161 7.20003 29.4047 7.82336 29.892C8.4467 30.3793 8.75837 31.0423 8.75837 31.881V32.255C8.75837 33.445 8.23703 34.2667 7.19436 34.72C7.82903 34.856 8.32203 35.1507 8.67337 35.604C9.03603 36.046 9.21737 36.5957 9.21737 37.253V37.627C9.21737 38.5677 8.88303 39.3157 8.21437 39.871C7.55703 40.4263 6.5597 40.704 5.22237 40.704C4.46303 40.704 3.42603 40.67 2.11136 40.602V29.229C3.15403 29.1837 4.15136 29.161 5.10337 29.161ZM4.88236 30.402C4.47436 30.402 4.03236 30.419 3.55636 30.453V34.261H5.22237C5.90237 34.261 6.41803 34.0967 6.76936 33.768C7.13203 33.4393 7.31336 32.9803 7.31336 32.391V32.102C7.31336 31.5353 7.1207 31.1103 6.73536 30.827C6.35003 30.5437 5.73237 30.402 4.88236 30.402ZM3.55636 35.434V39.344C3.93036 39.378 4.23636 39.4063 4.47437 39.429C4.7237 39.4403 4.97303 39.446 5.22237 39.446C6.09503 39.446 6.73536 39.2817 7.14337 38.953C7.5627 38.613 7.77237 38.1427 7.77237 37.542V37.185C7.77237 36.0177 6.95636 35.434 5.32436 35.434H3.55636ZM15.1408 29.365L18.5578 40.5H16.9938L16.2628 37.916H12.1658L11.4348 40.5H9.9558L13.3558 29.365H15.1408ZM14.2228 30.691L12.5228 36.624H15.9058L14.2228 30.691ZM23.0157 29.161C24.353 29.161 25.339 29.4217 25.9737 29.943C26.6083 30.4643 26.9257 31.1953 26.9257 32.136V32.561C26.9257 33.2183 26.7443 33.802 26.3817 34.312C26.019 34.8107 25.4977 35.162 24.8177 35.366L27.7077 40.5H26.0927L23.3897 35.672C23.299 35.6833 23.1177 35.689 22.8457 35.689C22.3923 35.689 21.9447 35.672 21.5027 35.638V40.5H20.0577V29.229C21.327 29.1837 22.313 29.161 23.0157 29.161ZM22.9817 30.385C22.6077 30.385 22.1147 30.3963 21.5027 30.419V34.431C22.1147 34.4877 22.6247 34.516 23.0327 34.516C24.6647 34.516 25.4807 33.853 25.4807 32.527V32.187C25.4807 31.575 25.2823 31.1217 24.8857 30.827C24.489 30.5323 23.8543 30.385 22.9817 30.385ZM32.2303 29.161C33.4203 29.161 34.327 29.4047 34.9503 29.892C35.5737 30.3793 35.8853 31.0423 35.8853 31.881V32.255C35.8853 33.445 35.364 34.2667 34.3213 34.72C34.956 34.856 35.449 35.1507 35.8003 35.604C36.163 36.046 36.3443 36.5957 36.3443 37.253V37.627C36.3443 38.5677 36.01 39.3157 35.3413 39.871C34.684 40.4263 33.6867 40.704 32.3493 40.704C31.59 40.704 30.553 40.67 29.2383 40.602V29.229C30.281 29.1837 31.2783 29.161 32.2303 29.161ZM32.0093 30.402C31.6013 30.402 31.1593 30.419 30.6833 30.453V34.261H32.3493C33.0293 34.261 33.545 34.0967 33.8963 33.768C34.259 33.4393 34.4403 32.9803 34.4403 32.391V32.102C34.4403 31.5353 34.2477 31.1103 33.8623 30.827C33.477 30.5437 32.8593 30.402 32.0093 30.402ZM30.6833 35.434V39.344C31.0573 39.378 31.3633 39.4063 31.6013 39.429C31.8507 39.4403 32.1 39.446 32.3493 39.446C33.222 39.446 33.8623 39.2817 34.2703 38.953C34.6897 38.613 34.8993 38.1427 34.8993 37.542V37.185C34.8993 36.0177 34.0833 35.434 32.4513 35.434H30.6833ZM44.0848 29.365V30.674H39.6648V34.193H43.7448V35.485H39.6648V39.191H44.0848V40.5H38.2198V29.365H44.0848ZM49.4287 29.161C50.7661 29.161 51.7521 29.4217 52.3867 29.943C53.0214 30.4643 53.3387 31.1953 53.3387 32.136V32.561C53.3387 33.2183 53.1574 33.802 52.7947 34.312C52.4321 34.8107 51.9107 35.162 51.2307 35.366L54.1207 40.5H52.5057L49.8027 35.672C49.7121 35.6833 49.5307 35.689 49.2587 35.689C48.8054 35.689 48.3577 35.672 47.9157 35.638V40.5H46.4707V29.229C47.7401 29.1837 48.7261 29.161 49.4287 29.161ZM49.3947 30.385C49.0207 30.385 48.5277 30.3963 47.9157 30.419V34.431C48.5277 34.4877 49.0377 34.516 49.4457 34.516C51.0777 34.516 51.8937 33.853 51.8937 32.527V32.187C51.8937 31.575 51.6954 31.1217 51.2987 30.827C50.9021 30.5323 50.2674 30.385 49.3947 30.385Z" fill="#FF9000"/>
</svg>
